<?xml version="1.0" encoding="UTF-8"?>
<svg width="65px" height="65px" viewBox="0 0 65 65" version="1.1" xmlns="http://www.w3.org/2000/svg" xmlns:xlink="http://www.w3.org/1999/xlink">
    <!-- Generator: Sketch 50.2 (55047) - http://www.bohemiancoding.com/sketch -->
    <title>ic_chat</title>
    <desc>Created with Sketch.</desc>
    <defs></defs>
    <g id="Page-1" stroke="none" stroke-width="1" fill="none" fill-rule="evenodd">
        <g id="ProfileScreenAbout" transform="translate(-122.000000, -1483.000000)" fill="#000000">
            <g id="PreferencesGroup" transform="translate(122.000000, 1466.000000)">
                <g id="ic_chat" transform="translate(0.000000, 17.000000)">
                    <g id="Icon-24px">
                        <path d="M57.9333333,0.333333333 L6.73333333,0.333333333 C3.21333333,0.333333333 0.365333333,3.21333333 0.365333333,6.73333333 L0.333333333,64.3333333 L13.1333333,51.5333333 L57.9333333,51.5333333 C61.4533333,51.5333333 64.3333333,48.6533333 64.3333333,45.1333333 L64.3333333,6.73333333 C64.3333333,3.21333333 61.4533333,0.333333333 57.9333333,0.333333333 L57.9333333,0.333333333 Z M13.1333333,22.7333333 L51.5333333,22.7333333 L51.5333333,29.1333333 L13.1333333,29.1333333 L13.1333333,22.7333333 L13.1333333,22.7333333 Z M38.7333333,38.7333333 L13.1333333,38.7333333 L13.1333333,32.3333333 L38.7333333,32.3333333 L38.7333333,38.7333333 L38.7333333,38.7333333 Z M51.5333333,19.5333333 L13.1333333,19.5333333 L13.1333333,13.1333333 L51.5333333,13.1333333 L51.5333333,19.5333333 L51.5333333,19.5333333 Z" id="Shape"></path>
                    </g>
                </g>
            </g>
        </g>
    </g>
</svg>