<?xml version="1.0" encoding="UTF-8"?>
<svg width="80px" height="80px" viewBox="0 0 80 80" version="1.1" xmlns="http://www.w3.org/2000/svg" xmlns:xlink="http://www.w3.org/1999/xlink">
    <!-- Generator: Sketch 50.2 (55047) - http://www.bohemiancoding.com/sketch -->
    <title>ic_add_circle_outline</title>
    <desc>Created with Sketch.</desc>
    <defs></defs>
    <g id="Page-1" stroke="none" stroke-width="1" fill="none" fill-rule="evenodd">
        <g id="MainPage" transform="translate(-4495.000000, -1893.000000)">
            <g id="MainScreen" transform="translate(3995.000000, 0.000000)">
                <g id="BottomPanel" transform="translate(70.000000, 1861.000000)">
                    <g id="ic_add_circle_outline" transform="translate(422.000000, 24.000000)">
                        <g id="Icon-24px">
                            <polygon id="Shape" points="0 0 96 0 96 96 0 96"></polygon>
                            <path d="M52,28 L44,28 L44,44 L28,44 L28,52 L44,52 L44,68 L52,68 L52,52 L68,52 L68,44 L52,44 L52,28 L52,28 Z M48,8 C25.92,8 8,25.92 8,48 C8,70.08 25.92,88 48,88 C70.08,88 88,70.08 88,48 C88,25.92 70.08,8 48,8 L48,8 Z M48,80 C30.36,80 16,65.64 16,48 C16,30.36 30.36,16 48,16 C65.64,16 80,30.36 80,48 C80,65.64 65.64,80 48,80 L48,80 Z" id="Shape" fill="#000000"></path>
                        </g>
                    </g>
                </g>
            </g>
        </g>
    </g>
</svg>