<?xml version="1.0" encoding="UTF-8"?>
<svg width="80px" height="80px" viewBox="0 0 80 80" version="1.1" xmlns="http://www.w3.org/2000/svg" xmlns:xlink="http://www.w3.org/1999/xlink">
    <!-- Generator: Sketch 50.2 (55047) - http://www.bohemiancoding.com/sketch -->
    <title>ic_chat</title>
    <desc>Created with Sketch.</desc>
    <defs></defs>
    <g id="Page-1" stroke="none" stroke-width="1" fill="none" fill-rule="evenodd">
        <g id="MainPage" transform="translate(-4720.000000, -1893.000000)">
            <g id="MainScreen" transform="translate(3995.000000, 0.000000)">
                <g id="BottomPanel" transform="translate(70.000000, 1861.000000)">
                    <g id="ic_chat" transform="translate(647.000000, 24.000000)">
                        <g id="Icon-24px">
                            <path d="M80,8 L16,8 C11.6,8 8.04,11.6 8.04,16 L8,88 L24,72 L80,72 C84.4,72 88,68.4 88,64 L88,16 C88,11.6 84.4,8 80,8 L80,8 Z M24,36 L72,36 L72,44 L24,44 L24,36 L24,36 Z M56,56 L24,56 L24,48 L56,48 L56,56 L56,56 Z M72,32 L24,32 L24,24 L72,24 L72,32 L72,32 Z" id="Shape" fill="#000000"></path>
                            <polygon id="Shape" points="0 0 96 0 96 96 0 96"></polygon>
                        </g>
                    </g>
                </g>
            </g>
        </g>
    </g>
</svg>