<?xml version="1.0" encoding="UTF-8"?>
<svg width="72px" height="64px" viewBox="0 0 72 64" version="1.1" xmlns="http://www.w3.org/2000/svg" xmlns:xlink="http://www.w3.org/1999/xlink">
    <!-- Generator: Sketch 50.2 (55047) - http://www.bohemiancoding.com/sketch -->
    <title>ic_directions_car</title>
    <desc>Created with Sketch.</desc>
    <defs></defs>
    <g id="Page-1" stroke="none" stroke-width="1" fill="none" fill-rule="evenodd">
        <g id="MainPage" transform="translate(-4077.000000, -1891.000000)">
            <g id="MainScreen" transform="translate(3995.000000, 0.000000)">
                <g id="BottomPanel" transform="translate(70.000000, 1861.000000)">
                    <g id="ic_directions_car" transform="translate(0.000000, 10.000000)">
                        <g id="Icon-24px">
                            <path d="M75.68,24.04 C74.88,21.68 72.64,20 70,20 L26,20 C23.36,20 21.16,21.68 20.32,24.04 L12,48 L12,80 C12,82.2 13.8,84 16,84 L20,84 C22.2,84 24,82.2 24,80 L24,76 L72,76 L72,80 C72,82.2 73.8,84 76,84 L80,84 C82.2,84 84,82.2 84,80 L84,48 L75.68,24.04 L75.68,24.04 Z M26,64 C22.68,64 20,61.32 20,58 C20,54.68 22.68,52 26,52 C29.32,52 32,54.68 32,58 C32,61.32 29.32,64 26,64 L26,64 Z M70,64 C66.68,64 64,61.32 64,58 C64,54.68 66.68,52 70,52 C73.32,52 76,54.68 76,58 C76,61.32 73.32,64 70,64 L70,64 Z M20,44 L26,26 L70,26 L76,44 L20,44 L20,44 Z" id="Shape" fill="#000000"></path>
                            <polygon id="Shape" points="0 0 96 0 96 96 0 96"></polygon>
                        </g>
                    </g>
                </g>
            </g>
        </g>
    </g>
</svg>