<?xml version="1.0" encoding="UTF-8"?>
<svg width="70px" height="70px" viewBox="0 0 70 70" version="1.1" xmlns="http://www.w3.org/2000/svg" xmlns:xlink="http://www.w3.org/1999/xlink">
    <!-- Generator: Sketch 50.2 (55047) - http://www.bohemiancoding.com/sketch -->
    <title>ic_search</title>
    <desc>Created with Sketch.</desc>
    <defs></defs>
    <g id="Page-1" stroke="none" stroke-width="1" fill="none" fill-rule="evenodd">
        <g id="MainPage" transform="translate(-4274.000000, -1897.000000)">
            <g id="MainScreen" transform="translate(3995.000000, 0.000000)">
                <g id="BottomPanel" transform="translate(70.000000, 1861.000000)">
                    <g id="ic_search" transform="translate(197.000000, 24.000000)">
                        <g id="Icon-24px">
                            <path d="M62,56 L58.84,56 L57.72,54.92 C61.64,50.36 64,44.44 64,38 C64,23.64 52.36,12 38,12 C23.64,12 12,23.64 12,38 C12,52.36 23.64,64 38,64 C44.44,64 50.36,61.64 54.92,57.72 L56,58.84 L56,62 L76,81.96 L81.96,76 L62,56 L62,56 Z M38,56 C28.04,56 20,47.96 20,38 C20,28.04 28.04,20 38,20 C47.96,20 56,28.04 56,38 C56,47.96 47.96,56 38,56 L38,56 Z" id="Shape" fill="#000000"></path>
                            <polygon id="Shape" points="0 0 96 0 96 96 0 96"></polygon>
                        </g>
                    </g>
                </g>
            </g>
        </g>
    </g>
</svg>