<?xml version="1.0" encoding="UTF-8"?>
<svg width="60px" height="59px" viewBox="0 0 60 59" version="1.1" xmlns="http://www.w3.org/2000/svg" xmlns:xlink="http://www.w3.org/1999/xlink">
    <!-- Generator: Sketch 50.2 (55047) - http://www.bohemiancoding.com/sketch -->
    <title>ic_library_music</title>
    <desc>Created with Sketch.</desc>
    <defs></defs>
    <g id="Page-1" stroke="none" stroke-width="1" fill="none" fill-rule="evenodd">
        <g id="ProfileScreenAbout" transform="translate(-423.000000, -1478.000000)">
            <g id="PreferencesGroup" transform="translate(122.000000, 1466.000000)">
                <g id="ic_library_music" transform="translate(295.000000, 7.000000)">
                    <g id="Icon-24px">
                        <polygon id="Shape" points="0 0 72 0 72 69.12 0 69.12"></polygon>
                        <path d="M60,5.76 L24,5.76 C20.7,5.76 18,8.352 18,11.52 L18,46.08 C18,49.248 20.7,51.84 24,51.84 L60,51.84 C63.3,51.84 66,49.248 66,46.08 L66,11.52 C66,8.352 63.3,5.76 60,5.76 L60,5.76 Z M54,20.16 L45,20.16 L45,36 C45,39.9744 41.64,43.2 37.5,43.2 C33.36,43.2 30,39.9744 30,36 C30,32.0256 33.36,28.8 37.5,28.8 C39.21,28.8 40.74,29.3472 42,30.2688 L42,14.4 L54,14.4 L54,20.16 L54,20.16 Z M12,17.28 L6,17.28 L6,57.6 C6,60.768 8.7,63.36 12,63.36 L54,63.36 L54,57.6 L12,57.6 L12,17.28 L12,17.28 Z" id="Shape" fill="#a0a0a0"></path>
                    </g>
                </g>
            </g>
        </g>
    </g>
</svg>